ply
format ascii 1.0
comment VTK generated PLY File
obj_info vtkPolyData points and polygons: vtk4.0
element vertex 36
property float x
property float y
property float z
element face 12
property list uchar int vertex_indices
end_header
1 1 -1 
1 -1 -1 
-1 1 -1 
1 -1 -1 
-1 -1 -1 
-1 1 -1 
-1 -1 1 
-1 1 1 
-1 1 -1 
-1 -1 1 
-1 1 -1 
-1 -1 -1 
1 -1 1 
0.999999 1 1 
-1 -1 1 
0.999999 1 1 
-1 1 1 
-1 -1 1 
1 -1 -1 
1 1 -1 
1 -1 1 
1 1 -1 
0.999999 1 1 
1 -1 1 
1 1 -1 
-1 1 -1 
-1 1 1 
1 1 -1 
-1 1 1 
0.999999 1 1 
1 -1 -1 
1 -1 1 
-1 -1 1 
1 -1 -1 
-1 -1 1 
-1 -1 -1 
3 0 1 2 
3 3 4 5 
3 6 7 8 
3 9 10 11 
3 12 13 14 
3 15 16 17 
3 18 19 20 
3 21 22 23 
3 24 25 26 
3 27 28 29 
3 30 31 32 
3 33 34 35 
